<svg width="30" height="31" viewBox="0 0 30 31" fill="none" xmlns="http://www.w3.org/2000/svg">
<mask id="mask0_316_94" style="mask-type:alpha" maskUnits="userSpaceOnUse" x="0" y="0" width="30" height="31">
<rect y="0.5" width="30" height="30" fill="#D9D9D9"/>
</mask>
<g mask="url(#mask0_316_94)">
<path d="M9.17422 21.644H17.9533V19.144H9.17422V21.644ZM9.17422 16.75H21.5031V14.25H9.17422V16.75ZM9.17422 11.8559H21.5031V9.35595H9.17422V11.8559ZM6.77227 27.3505C5.84618 27.3505 5.06074 27.0292 4.41593 26.3865C3.77113 25.7439 3.44873 24.961 3.44873 24.038V6.96195C3.44873 6.03893 3.77113 5.25608 4.41593 4.61341C5.06074 3.97075 5.84618 3.64941 6.77227 3.64941H23.9051C24.8312 3.64941 25.6166 3.97075 26.2614 4.61341C26.9062 5.25608 27.2286 6.03893 27.2286 6.96195V24.038C27.2286 24.961 26.9062 25.7439 26.2614 26.3865C25.6166 27.0292 24.8312 27.3505 23.9051 27.3505H6.77227ZM6.77227 24.038H23.9051V6.96195H6.77227V24.038Z" fill="white"/>
</g>
</svg>
