<svg width="30" height="31" viewBox="0 0 30 31" fill="none" xmlns="http://www.w3.org/2000/svg">
<mask id="mask0_316_425" style="mask-type:alpha" maskUnits="userSpaceOnUse" x="0" y="0" width="30" height="31">
<rect y="0.5" width="30" height="30" fill="#D9D9D9"/>
</mask>
<g mask="url(#mask0_316_425)">
<path d="M3.14941 27.3505V24.038H5.64941V6.96195C5.64941 6.03893 5.97075 5.25608 6.61341 4.61341C7.25608 3.97075 8.03892 3.64941 8.96195 3.64941H21.038C21.961 3.64941 22.7439 3.97075 23.3865 4.61341C24.0292 5.25608 24.3505 6.03893 24.3505 6.96195V24.038H26.8505V27.3505H3.14941ZM21.038 24.038V6.96195H8.96195V24.038H21.038ZM17.5 16.75C17.8541 16.75 18.151 16.6302 18.3906 16.3906C18.6302 16.151 18.75 15.8541 18.75 15.5C18.75 15.1458 18.6302 14.8489 18.3906 14.6094C18.151 14.3698 17.8541 14.25 17.5 14.25C17.1458 14.25 16.8489 14.3698 16.6094 14.6094C16.3698 14.8489 16.25 15.1458 16.25 15.5C16.25 15.8541 16.3698 16.151 16.6094 16.3906C16.8489 16.6302 17.1458 16.75 17.5 16.75Z" fill="white"/>
</g>
</svg>
