<svg width="current" height="current" viewBox="0 0 73 72" fill="none" xmlns="http://www.w3.org/2000/svg">
<path d="M67.9368 36.75C67.9368 34.41 67.7268 32.16 67.3368 30H36.2568V42.78H54.0168C53.2368 46.89 50.8968 50.37 47.3868 52.71V61.02H58.0968C64.3368 55.26 67.9368 46.8 67.9368 36.75Z" fill="#4285F4"/>
<path d="M36.2569 69C45.1669 69 52.6369 66.06 58.0969 61.02L47.3869 52.71C44.4469 54.69 40.6969 55.89 36.2569 55.89C27.6769 55.89 20.3869 50.1 17.7769 42.3H6.79688V50.82C12.2269 61.59 23.3569 69 36.2569 69Z" fill="#34A853"/>
<path d="M17.7768 42.27C17.1168 40.29 16.7268 38.19 16.7268 36C16.7268 33.81 17.1168 31.71 17.7768 29.73V21.21H6.79684C4.54684 25.65 3.25684 30.66 3.25684 36C3.25684 41.34 4.54684 46.35 6.79684 50.79L15.3468 44.13L17.7768 42.27Z" fill="#FBBC05"/>
<path d="M36.2569 16.14C41.1169 16.14 45.4369 17.82 48.8869 21.06L58.3369 11.61C52.6069 6.27 45.1669 3 36.2569 3C23.3569 3 12.2269 10.41 6.79688 21.21L17.7769 29.73C20.3869 21.93 27.6769 16.14 36.2569 16.14Z" fill="#EA4335"/>
</svg>
