<svg width="current" height="current" viewBox="0 0 72 72" fill="none" xmlns="http://www.w3.org/2000/svg">
<path d="M36 8.9845C19.8456 8.9845 6.75 19.31 6.75 32.047C6.75 40.2817 12.2248 47.5073 20.4604 51.5874C20.0123 53.1326 17.5812 61.5279 17.4845 62.1874C17.4845 62.1874 17.4263 62.683 17.7472 62.872C18.0681 63.061 18.4455 62.9142 18.4455 62.9142C19.3658 62.7857 29.117 55.9361 30.8048 54.7467C32.4908 54.9855 34.227 55.1095 36 55.1095C52.1544 55.1095 65.25 44.7842 65.25 32.047C65.25 19.31 52.1544 8.9845 36 8.9845Z" fill="#371D1E"/>
<path d="M19.8281 40.0978C18.8975 40.0978 18.1406 39.375 18.1406 38.4862V28.4611H15.5076C14.5943 28.4611 13.8516 27.7197 13.8516 26.8087C13.8516 25.8977 14.5946 25.1564 15.5076 25.1564H24.1487C25.0619 25.1564 25.8047 25.8977 25.8047 26.8087C25.8047 27.7197 25.0616 28.4611 24.1487 28.4611H21.5156V38.4862C21.5156 39.375 20.7588 40.0978 19.8281 40.0978ZM34.6252 40.0758C33.9216 40.0758 33.3833 39.7901 33.221 39.3305L32.3854 37.143L27.2396 37.1427L26.4035 39.3317C26.2417 39.7904 25.7037 40.0758 25 40.0758C24.6299 40.0762 24.264 39.9968 23.9273 39.843C23.4622 39.6284 23.015 39.0383 23.5274 37.4467L27.5639 26.8222C27.8482 26.0142 28.712 25.1817 29.8111 25.1567C30.9133 25.1814 31.777 26.0142 32.0619 26.8239L36.0967 37.4436C36.6103 39.0389 36.1631 39.6292 35.6979 39.8432C35.3612 39.9968 34.9954 40.0761 34.6252 40.0758C34.6252 40.0758 34.625 40.0758 34.6252 40.0758ZM31.498 34.1538L29.8125 29.3656L28.127 34.1538H31.498ZM38.8125 39.8517C37.9207 39.8517 37.1953 39.1576 37.1953 38.3048V26.8439C37.1953 25.9132 37.9682 25.1564 38.918 25.1564C39.8678 25.1564 40.6406 25.9132 40.6406 26.8439V36.7579H44.2266C45.1184 36.7579 45.8438 37.4521 45.8438 38.3048C45.8438 39.1576 45.1184 39.8517 44.2266 39.8517H38.8125ZM48.1877 40.0758C47.257 40.0758 46.5002 39.319 46.5002 38.3883V26.8439C46.5002 25.9132 47.257 25.1564 48.1877 25.1564C49.1183 25.1564 49.8752 25.9132 49.8752 26.8439V30.4709L54.5833 25.7627C54.8255 25.5206 55.1582 25.3873 55.5193 25.3873C55.9406 25.3873 56.3636 25.569 56.6806 25.8857C56.9762 26.181 57.1525 26.5609 57.1767 26.9555C57.2012 27.3535 57.0687 27.7183 56.8043 27.9829L52.9588 31.8279L57.1126 37.3308C57.2467 37.5074 57.3444 37.7088 57.4 37.9234C57.4556 38.138 57.4681 38.3615 57.4366 38.581C57.4065 38.8006 57.3331 39.012 57.2208 39.2031C57.1084 39.3941 56.9592 39.5609 56.7818 39.6939C56.49 39.9157 56.1334 40.0354 55.7668 40.0345C55.5053 40.0357 55.2472 39.9757 55.0131 39.8592C54.779 39.7427 54.5755 39.573 54.4188 39.3637L50.4613 34.1201L49.8757 34.7057V38.3875C49.8752 38.8351 49.6972 39.2642 49.3808 39.5807C49.0643 39.8972 48.6353 40.0752 48.1877 40.0758Z" fill="#FAE100"/>
</svg>
