<svg width="70" height="70" viewBox="0 0 70 70" fill="none" xmlns="http://www.w3.org/2000/svg">
<mask id="mask0_19_336" style="mask-type:alpha" maskUnits="userSpaceOnUse" x="0" y="0" width="70" height="70">
<rect width="70" height="70" fill="#D9D9D9"/>
</mask>
<g mask="url(#mask0_19_336)">
<path d="M23.4064 52.5H32.1564V49.5833H26.3231V46.6667H32.1564V37.9167H23.4064V40.8333H29.2398V43.75H23.4064V52.5ZM43.8231 52.5H46.7398V37.9167H43.8231V43.75H40.9064V37.9167H37.9898V46.6667H43.8231V52.5ZM61.3231 32.2292V55.4167C61.3231 57.0208 60.7519 58.3941 59.6096 59.5365C58.4672 60.6788 57.0939 61.25 55.4898 61.25H14.6564C13.0523 61.25 11.679 60.6788 10.5366 59.5365C9.39428 58.3941 8.8231 57.0208 8.8231 55.4167V32.2292C7.70505 31.2083 6.8422 29.8958 6.23456 28.2917C5.62692 26.6875 5.61477 24.9375 6.1981 23.0417L9.2606 13.125C9.64949 11.8611 10.3422 10.816 11.3387 9.98958C12.3353 9.16319 13.4898 8.75 14.8023 8.75H55.3439C56.6564 8.75 57.7988 9.15104 58.771 9.95313C59.7432 10.7552 60.4481 11.8125 60.8856 13.125L63.9481 23.0417C64.5314 24.9375 64.5193 26.6632 63.9116 28.2188C63.304 29.7743 62.4412 31.1111 61.3231 32.2292ZM41.4898 29.1667C42.8023 29.1667 43.7988 28.717 44.4794 27.8177C45.1599 26.9184 45.4273 25.9097 45.2814 24.7917L43.6773 14.5833H37.9898V25.375C37.9898 26.3958 38.33 27.283 39.0106 28.0365C39.6912 28.7899 40.5176 29.1667 41.4898 29.1667ZM28.3648 29.1667C29.4828 29.1667 30.3943 28.7899 31.0991 28.0365C31.804 27.283 32.1564 26.3958 32.1564 25.375V14.5833H26.4689L24.8648 24.7917C24.6703 25.9583 24.9255 26.9792 25.6304 27.8542C26.3353 28.7292 27.2467 29.1667 28.3648 29.1667ZM15.3856 29.1667C16.2606 29.1667 17.0262 28.8507 17.6825 28.2188C18.3387 27.5868 18.7398 26.7847 18.8856 25.8125L20.4898 14.5833H14.8023L11.8856 24.3542C11.5939 25.3264 11.7519 26.3715 12.3596 27.4896C12.9672 28.6076 13.9759 29.1667 15.3856 29.1667ZM54.7606 29.1667C56.1703 29.1667 57.1912 28.6076 57.8231 27.4896C58.455 26.3715 58.6009 25.3264 58.2606 24.3542L55.1981 14.5833H49.6564L51.2606 25.8125C51.4064 26.7847 51.8075 27.5868 52.4637 28.2188C53.12 28.8507 53.8856 29.1667 54.7606 29.1667ZM14.6564 55.4167H55.4898V34.8542C55.2467 34.9514 55.0887 35 55.0158 35H54.7606C53.4481 35 52.2936 34.7813 51.2971 34.3438C50.3005 33.9063 49.3162 33.2014 48.3439 32.2292C47.4689 33.1042 46.4724 33.7847 45.3544 34.2708C44.2363 34.7569 43.0453 35 41.7814 35C40.4689 35 39.2415 34.7569 38.0991 34.2708C36.9568 33.7847 35.9481 33.1042 35.0731 32.2292C34.2467 33.1042 33.2866 33.7847 32.1929 34.2708C31.0991 34.7569 29.9203 35 28.6564 35C27.2467 35 25.9707 34.7569 24.8283 34.2708C23.686 33.7847 22.6773 33.1042 21.8023 32.2292C20.7814 33.25 19.7728 33.967 18.7762 34.3802C17.7797 34.7934 16.6495 35 15.3856 35H15.0575C14.9359 35 14.8023 34.9514 14.6564 34.8542V55.4167Z" fill="current"/>
</g>
</svg>
