<svg width="70" height="70" viewBox="0 0 70 70" fill="none" xmlns="http://www.w3.org/2000/svg">
<mask id="mask0_269_904" style="mask-type:alpha" maskUnits="userSpaceOnUse" x="0" y="0" width="70" height="70">
<rect width="70" height="70" fill="#D9D9D9"/>
</mask>
<g mask="url(#mask0_269_904)">
<path d="M34.9998 35C36.604 35 37.9773 34.4288 39.1196 33.2864C40.262 32.1441 40.8332 30.7708 40.8332 29.1666C40.8332 27.5625 40.262 26.1892 39.1196 25.0469C37.9773 23.9045 36.604 23.3333 34.9998 23.3333C33.3957 23.3333 32.0224 23.9045 30.88 25.0469C29.7377 26.1892 29.1665 27.5625 29.1665 29.1666C29.1665 30.7708 29.7377 32.1441 30.88 33.2864C32.0224 34.4288 33.3957 35 34.9998 35ZM34.9998 64.1666C27.1734 57.5069 21.328 51.3212 17.4634 45.6094C13.5988 39.8976 11.6665 34.6111 11.6665 29.75C11.6665 22.4583 14.012 16.6493 18.703 12.3229C23.3939 7.99651 28.8262 5.83331 34.9998 5.83331C41.1734 5.83331 46.6057 7.99651 51.2967 12.3229C55.9877 16.6493 58.3332 22.4583 58.3332 29.75C58.3332 34.6111 56.4009 39.8976 52.5363 45.6094C48.6717 51.3212 42.8262 57.5069 34.9998 64.1666Z" fill="current"/>
</g>
</svg>
