<svg width="30" height="31" viewBox="0 0 30 31" fill="none" xmlns="http://www.w3.org/2000/svg">
<mask id="mask0_316_305" style="mask-type:alpha" maskUnits="userSpaceOnUse" x="0" y="0" width="30" height="31">
<rect y="0.5" width="30" height="30" fill="#D9D9D9"/>
</mask>
<g mask="url(#mask0_316_305)">
<path d="M13.7337 24.25H16.2038V22.7934C17.2219 22.6059 18.1118 22.1997 18.8736 21.5747C19.6354 20.9497 20.0163 19.9873 20.0163 18.6875C20.0163 17.7771 19.7604 16.9427 19.2486 16.1841C18.7368 15.4255 17.7133 14.7753 16.178 14.2337C14.9397 13.817 14.0928 13.4524 13.6372 13.1399C13.1816 12.8274 12.9538 12.418 12.9538 11.9117C12.9538 11.4406 13.1318 11.0695 13.4878 10.7982C13.8437 10.5269 14.3333 10.3913 14.9565 10.3913C15.5996 10.3913 16.1175 10.5527 16.5102 10.8757C16.9028 11.1986 17.1825 11.6173 17.3492 12.1318L19.5964 11.2133C19.3437 10.3899 18.9189 9.70446 18.322 9.15691C17.7251 8.60935 17.0398 8.29255 16.2663 8.20651V6.74998H13.7962V8.20651C12.7074 8.45922 11.8831 8.9411 11.3234 9.65216C10.7636 10.3632 10.4837 11.1458 10.4837 12C10.4837 13.0262 10.7907 13.8591 11.4049 14.4986C12.019 15.1381 13.0172 15.7002 14.3994 16.1848C15.5589 16.5933 16.3732 16.9733 16.8424 17.3247C17.3116 17.6762 17.5462 18.1304 17.5462 18.6875C17.5462 19.3279 17.3308 19.7978 16.9001 20.0971C16.4694 20.3965 15.8985 20.5462 15.1875 20.5462C14.5 20.5462 13.9024 20.3356 13.3947 19.9144C12.887 19.4932 12.514 18.8319 12.2758 17.9307L9.96601 18.8492C10.2341 19.9316 10.699 20.7977 11.3607 21.4477C12.0224 22.0976 12.8134 22.5253 13.7337 22.7309V24.25ZM15 28.6005C13.1766 28.6005 11.4692 28.2577 9.8777 27.572C8.2862 26.8863 6.90145 25.9545 5.72345 24.7765C4.54547 23.5985 3.61363 22.2138 2.92795 20.6223C2.24226 19.0308 1.89941 17.3234 1.89941 15.5C1.89941 13.6766 2.24226 11.9692 2.92795 10.3777C3.61363 8.7862 4.54547 7.40145 5.72345 6.22345C6.90145 5.04547 8.2862 4.11363 9.8777 3.42795C11.4692 2.74226 13.1766 2.39941 15 2.39941C16.8234 2.39941 18.5308 2.74226 20.1223 3.42795C21.7138 4.11363 23.0985 5.04547 24.2765 6.22345C25.4545 7.40145 26.3863 8.7862 27.072 10.3777C27.7577 11.9692 28.1005 13.6766 28.1005 15.5C28.1005 17.3234 27.7577 19.0308 27.072 20.6223C26.3863 22.2138 25.4545 23.5985 24.2765 24.7765C23.0985 25.9545 21.7138 26.8863 20.1223 27.572C18.5308 28.2577 16.8234 28.6005 15 28.6005ZM15 25.288C17.7445 25.288 20.062 24.3428 21.9524 22.4524C23.8428 20.562 24.788 18.2445 24.788 15.5C24.788 12.7554 23.8428 10.4379 21.9524 8.54754C20.062 6.65714 17.7445 5.71195 15 5.71195C12.2554 5.71195 9.93794 6.65714 8.04754 8.54754C6.15714 10.4379 5.21195 12.7554 5.21195 15.5C5.21195 18.2445 6.15714 20.562 8.04754 22.4524C9.93794 24.3428 12.2554 25.288 15 25.288Z" fill="white"/>
</g>
</svg>
