<svg width="30" height="31" viewBox="0 0 30 31" fill="none" xmlns="http://www.w3.org/2000/svg">
<mask id="mask0_316_574" style="mask-type:alpha" maskUnits="userSpaceOnUse" x="0" y="0" width="30" height="31">
<rect y="0.5" width="30" height="30" fill="#D9D9D9"/>
</mask>
<g mask="url(#mask0_316_574)">
<path d="M8.62632 10.6943C7.79751 10.6943 7.0971 10.4083 6.5251 9.83626C5.95308 9.26424 5.66707 8.56382 5.66707 7.73501V5.34101C5.66707 4.5122 5.95308 3.81473 6.5251 3.2486C7.0971 2.68248 7.79751 2.39941 8.62632 2.39941H21.3913C22.2201 2.39941 22.9176 2.68248 23.4837 3.2486C24.0498 3.81473 24.3329 4.5122 24.3329 5.34101V7.73501C24.3329 8.56382 24.0498 9.26424 23.4837 9.83626C22.9176 10.4083 22.2201 10.6943 21.3913 10.6943H8.62632ZM8.62632 7.73501H21.3736V5.35867H8.62632V7.73501ZM4.85866 28.6005C4.02985 28.6005 3.32943 28.3145 2.75741 27.7425C2.18541 27.1705 1.89941 26.4701 1.89941 25.6413V24.7446H28.1005V25.6413C28.1005 26.4701 27.8175 27.1705 27.2514 27.7425C26.6852 28.3145 25.9878 28.6005 25.1589 28.6005H4.85866ZM1.95241 23.2649L6.43745 13.837C6.69288 13.3197 7.05838 12.9133 7.53395 12.6175C8.00949 12.3218 8.52806 12.1739 9.08966 12.1739H20.928C21.4896 12.1739 22.0081 12.3218 22.4837 12.6175C22.9592 12.9133 23.3247 13.3197 23.5802 13.837L28.0652 23.2649H1.95241ZM10.6099 20.8533H11.8724C12.0408 20.8533 12.1875 20.7908 12.3125 20.6658C12.4375 20.5408 12.5 20.3949 12.5 20.2283C12.5 20.0616 12.4375 19.9158 12.3125 19.7908C12.1875 19.6658 12.0408 19.6033 11.8724 19.6033H10.6099C10.4415 19.6033 10.2948 19.6658 10.1698 19.7908C10.0448 19.9158 9.98232 20.0616 9.98232 20.2283C9.98232 20.3949 10.0448 20.5408 10.1698 20.6658C10.2948 20.7908 10.4415 20.8533 10.6099 20.8533ZM10.6099 18.3533H11.8724C12.0408 18.3533 12.1875 18.2899 12.3125 18.1631C12.4375 18.0363 12.5 17.8884 12.5 17.7194C12.5 17.5504 12.4375 17.4025 12.3125 17.2757C12.1875 17.149 12.0408 17.0856 11.8724 17.0856H10.6099C10.4415 17.0856 10.2948 17.149 10.1698 17.2757C10.0448 17.4025 9.98232 17.5504 9.98232 17.7194C9.98232 17.8884 10.0448 18.0363 10.1698 18.1631C10.2948 18.2899 10.4415 18.3533 10.6099 18.3533ZM10.6099 15.8356H11.8724C12.0408 15.8356 12.1875 15.7731 12.3125 15.6481C12.4375 15.5231 12.5 15.3773 12.5 15.2106C12.5 15.0439 12.4375 14.8981 12.3125 14.7731C12.1875 14.6481 12.0408 14.5856 11.8724 14.5856H10.6099C10.4415 14.5856 10.2948 14.6481 10.1698 14.7731C10.0448 14.8981 9.98232 15.0439 9.98232 15.2106C9.98232 15.3773 10.0448 15.5231 10.1698 15.6481C10.2948 15.7731 10.4415 15.8356 10.6099 15.8356ZM14.3775 20.8533H15.6401C15.8085 20.8533 15.9551 20.7908 16.0801 20.6658C16.2051 20.5408 16.2676 20.3949 16.2676 20.2283C16.2676 20.0616 16.2051 19.9158 16.0801 19.7908C15.9551 19.6658 15.8085 19.6033 15.6401 19.6033H14.3775C14.2092 19.6033 14.0625 19.6658 13.9375 19.7908C13.8125 19.9158 13.75 20.0616 13.75 20.2283C13.75 20.3949 13.8125 20.5408 13.9375 20.6658C14.0625 20.7908 14.2092 20.8533 14.3775 20.8533ZM14.3775 18.3533H15.6401C15.8085 18.3533 15.9551 18.2899 16.0801 18.1631C16.2051 18.0363 16.2676 17.8884 16.2676 17.7194C16.2676 17.5504 16.2051 17.4025 16.0801 17.2757C15.9551 17.149 15.8085 17.0856 15.6401 17.0856H14.3775C14.2092 17.0856 14.0625 17.149 13.9375 17.2757C13.8125 17.4025 13.75 17.5504 13.75 17.7194C13.75 17.8884 13.8125 18.0363 13.9375 18.1631C14.0625 18.2899 14.2092 18.3533 14.3775 18.3533ZM14.3775 15.8356H15.6401C15.8085 15.8356 15.9551 15.7731 16.0801 15.6481C16.2051 15.5231 16.2676 15.3773 16.2676 15.2106C16.2676 15.0439 16.2051 14.8981 16.0801 14.7731C15.9551 14.6481 15.8085 14.5856 15.6401 14.5856H14.3775C14.2092 14.5856 14.0625 14.6481 13.9375 14.7731C13.8125 14.8981 13.75 15.0439 13.75 15.2106C13.75 15.3773 13.8125 15.5231 13.9375 15.6481C14.0625 15.7731 14.2092 15.8356 14.3775 15.8356ZM18.1426 20.8533H19.3926C19.5711 20.8533 19.7228 20.7908 19.8478 20.6658C19.9728 20.5408 20.0353 20.3949 20.0353 20.2283C20.0353 20.0616 19.9728 19.9158 19.8478 19.7908C19.7228 19.6658 19.5711 19.6033 19.3926 19.6033H18.1426C17.976 19.6033 17.8301 19.6658 17.7051 19.7908C17.5801 19.9158 17.5176 20.0616 17.5176 20.2283C17.5176 20.3949 17.5801 20.5408 17.7051 20.6658C17.8301 20.7908 17.976 20.8533 18.1426 20.8533ZM18.1426 18.3533H19.3926C19.5711 18.3533 19.7228 18.2899 19.8478 18.1631C19.9728 18.0363 20.0353 17.8884 20.0353 17.7194C20.0353 17.5504 19.9728 17.4025 19.8478 17.2757C19.7228 17.149 19.5711 17.0856 19.3926 17.0856H18.1426C17.976 17.0856 17.8301 17.149 17.7051 17.2757C17.5801 17.4025 17.5176 17.5504 17.5176 17.7194C17.5176 17.8884 17.5801 18.0363 17.7051 18.1631C17.8301 18.2899 17.976 18.3533 18.1426 18.3533ZM18.1426 15.8356H19.3926C19.5711 15.8356 19.7228 15.7731 19.8478 15.6481C19.9728 15.5231 20.0353 15.3773 20.0353 15.2106C20.0353 15.0439 19.9728 14.8981 19.8478 14.7731C19.7228 14.6481 19.5711 14.5856 19.3926 14.5856H18.1426C17.976 14.5856 17.8301 14.6481 17.7051 14.7731C17.5801 14.8981 17.5176 15.0439 17.5176 15.2106C17.5176 15.3773 17.5801 15.5231 17.7051 15.6481C17.8301 15.7731 17.976 15.8356 18.1426 15.8356Z" fill="white"/>
</g>
</svg>
