<svg width="30" height="31" viewBox="0 0 30 31" fill="none" xmlns="http://www.w3.org/2000/svg">
<mask id="mask0_316_176" style="mask-type:alpha" maskUnits="userSpaceOnUse" x="0" y="0" width="30" height="31">
<rect y="0.5" width="30" height="30" fill="#D9D9D9"/>
</mask>
<g mask="url(#mask0_316_176)">
<path d="M8.43184 29.515L11.8965 11.996L10.0881 12.712V17.015H7.04053V10.6807L13.7063 7.94028C14.0333 7.80349 14.37 7.72763 14.7165 7.71269C15.063 7.69775 15.3997 7.74236 15.7267 7.84653C16.0537 7.9507 16.3562 8.1083 16.6343 8.31934C16.9124 8.53041 17.1465 8.79354 17.3367 9.10875L18.6221 11.1088C19.1402 11.9366 19.8598 12.623 20.781 13.1678C21.7022 13.7127 22.7801 13.9851 24.0147 13.9851V17.015C22.5682 17.015 21.2543 16.7483 20.0732 16.2148C18.892 15.6813 17.8834 14.987 17.0473 14.1319L16.4251 17.2868L19.0147 19.7691V29.515H15.9848V21.5843L13.7661 19.708L11.5691 29.515H8.43184ZM17.0867 7.11006C16.3168 7.11006 15.6635 6.83878 15.1268 6.29622C14.5901 5.75364 14.3218 5.09738 14.3218 4.32744C14.3218 3.55752 14.5901 2.90422 15.1268 2.36753C15.6635 1.83084 16.3168 1.5625 17.0867 1.5625C17.8567 1.5625 18.5129 1.83084 19.0555 2.36753C19.5981 2.90422 19.8694 3.55752 19.8694 4.32744C19.8694 5.09738 19.5981 5.75364 19.0555 6.29622C18.5129 6.83878 17.8567 7.11006 17.0867 7.11006Z" fill="white"/>
</g>
</svg>
