<svg width="30" height="31" viewBox="0 0 30 31" fill="none" xmlns="http://www.w3.org/2000/svg">
<mask id="mask0_316_397" style="mask-type:alpha" maskUnits="userSpaceOnUse" x="0" y="0" width="30" height="31">
<rect y="0.5" width="30" height="30" fill="#D9D9D9"/>
</mask>
<g mask="url(#mask0_316_397)">
<path d="M16.6563 13.8437H24.6372C24.3011 11.7758 23.4039 10.0127 21.9456 8.55432C20.4873 7.09601 18.7242 6.19882 16.6563 5.86276V13.8437ZM13.3437 25.1372V5.86276C10.9877 6.24593 9.04346 7.34195 7.51085 9.15082C5.97825 10.9597 5.21195 13.0761 5.21195 15.5C5.21195 17.9239 5.97825 20.0403 7.51085 21.8491C9.04346 23.658 10.9877 24.754 13.3437 25.1372ZM16.6563 25.1372C18.7242 24.8102 20.4896 23.9153 21.9524 22.4524C23.4153 20.9896 24.3102 19.2242 24.6372 17.1563H16.6563V25.1372ZM15 28.6005C13.1897 28.6005 11.4885 28.2577 9.89635 27.572C8.30418 26.8863 6.91616 25.9515 5.73229 24.7677C4.54841 23.5838 3.61362 22.1956 2.92791 20.6031C2.24225 19.0107 1.89941 17.3091 1.89941 15.4985C1.89941 13.6879 2.24226 11.9868 2.92795 10.3954C3.61363 8.80385 4.54841 7.41617 5.73229 6.23229C6.91616 5.04842 8.30434 4.11363 9.89682 3.42795C11.4893 2.74226 13.1908 2.39941 15.0014 2.39941C16.8121 2.39941 18.5096 2.74263 20.0939 3.42907C21.6783 4.11551 23.066 5.05256 24.257 6.24023C25.448 7.42787 26.3863 8.81435 27.072 10.3997C27.7577 11.985 28.1005 13.6851 28.1005 15.5C28.1005 17.3025 27.7567 18.9994 27.0689 20.5905C26.3811 22.1816 25.4477 23.5711 24.2686 24.759C23.0896 25.9469 21.7031 26.8841 20.1092 27.5707C18.5153 28.2573 16.8122 28.6005 15 28.6005Z" fill="white"/>
</g>
</svg>
