<svg width="30" height="31" viewBox="0 0 30 31" fill="none" xmlns="http://www.w3.org/2000/svg">
<mask id="mask0_316_726" style="mask-type:alpha" maskUnits="userSpaceOnUse" x="0" y="0" width="30" height="31">
<rect y="0.5" width="30" height="30" fill="#D9D9D9"/>
</mask>
<g mask="url(#mask0_316_726)">
<path d="M23.8908 18.2477V10.0874L18.0471 5.99505L12.2033 10.0874V11.4502H8.89081V8.41349L18.0471 1.88086L27.2033 8.41349V18.2477H23.8908ZM18.5308 10.9067H20.0457V9.39177H18.5308V10.9067ZM16.0308 10.9067H17.5457V9.39177H16.0308V10.9067ZM18.5308 13.4067H20.0457V11.8918H18.5308V13.4067ZM16.0308 13.4067H17.5457V11.8918H16.0308V13.4067ZM17.3229 29.438L8.85547 27.0535V28.7777H0.542969V13.9502H11.1163L18.9547 16.8605C19.7481 17.1576 20.3908 17.6569 20.8827 18.3585C21.3745 19.06 21.6204 19.8564 21.6204 20.7477H23.5729C24.7666 20.7477 25.7813 21.065 26.617 21.6995C27.4526 22.334 27.8704 23.2668 27.8704 24.4977V26.154L17.3229 29.438ZM3.57288 25.7477H5.80791V16.9977H3.57288V25.7477ZM17.2604 26.2477L24.6979 23.9352C24.6354 23.6943 24.4945 23.5195 24.2752 23.4108C24.0559 23.3021 23.8209 23.2477 23.5703 23.2477H17.5552C16.9683 23.2477 16.3938 23.2031 15.8317 23.1139C15.2696 23.0247 14.716 22.8877 14.1707 22.7029L11.9791 21.9352L12.6979 19.5602L15.1095 20.3374C15.5552 20.486 16.0259 20.5915 16.5218 20.654C17.0176 20.7165 17.7013 20.7477 18.5729 20.7477C18.5729 20.5186 18.5052 20.2998 18.3698 20.0915C18.2343 19.8832 18.0729 19.7477 17.8854 19.6852L10.5729 16.9977H8.85547V23.9257L17.2604 26.2477Z" fill="white"/>
</g>
</svg>
