<svg width="current" height="current" viewBox="0 0 28 28" fill="none" xmlns="http://www.w3.org/2000/svg">
<g clip-path="url(#clip0_49_1399)">
<path d="M12.8676 17.0106L27.4472 2.42582C27.9628 1.9102 27.9628 1.06836 27.4472 0.552734C26.9315 0.0371094 26.0897 0.0371094 25.5741 0.552734L10.9893 15.1323C10.4736 15.6479 10.4736 16.4898 10.9893 17.0054C11.5101 17.5263 12.3467 17.5263 12.8676 17.0106Z" fill="white"/>
<path d="M25.2639 1.03651L16.6456 24.9026L17.8925 25.3551L16.6876 24.8026L17.2296 25.0499V24.4554C17.0033 24.4554 16.7876 24.5869 16.6876 24.8026L17.2296 25.0499L17.4769 24.508L17.2296 24.4554V25.0499L17.7715 24.8026C17.7136 24.6711 17.6084 24.5658 17.4769 24.508L17.2296 25.0499L17.7715 24.8026L17.7505 24.7605L13.1098 15.4793C12.9783 15.2215 12.7731 15.0163 12.5153 14.8847L3.24457 10.2441L3.20248 10.2231L2.95519 10.765H3.54973C3.54973 10.5387 3.4182 10.323 3.20248 10.2231L2.95519 10.765H3.54973H2.94993L3.49712 11.0175L3.54973 10.765H2.94993L3.49712 11.0175L2.95519 10.7702L3.20248 11.3122C3.33401 11.2543 3.43924 11.1491 3.49712 11.0175L2.95519 10.7702L3.20248 11.3122L2.65002 10.1073L3.10251 11.3543L26.9633 2.73597C27.6526 2.48868 28.0104 1.72576 27.7578 1.03651C27.5053 0.347257 26.7476 -0.00526254 26.0583 0.242027L2.19753 8.86033L2.09757 8.90242C1.65034 9.10762 1.29256 9.4654 1.08736 9.91263C0.961087 10.1862 0.897949 10.4809 0.897949 10.7702C0.897949 11.5489 1.34517 12.2908 2.09757 12.6381L2.65002 11.4332L2.05547 12.617L10.9421 17.0577L15.3828 25.9444L16.5666 25.3498L15.3618 25.9023C15.567 26.3495 15.9247 26.7073 16.372 26.9125C16.6456 27.0387 16.9402 27.1019 17.2296 27.0966C18.0083 27.0966 18.7501 26.6494 19.0974 25.897L19.1395 25.797L27.7578 1.94148C28.0051 1.25223 27.6473 0.494578 26.9633 0.242027C26.2741 -0.00526254 25.5112 0.352518 25.2639 1.03651Z" fill="white"/>
</g>
<defs>
<clipPath id="clip0_49_1399">
<rect width="26.9388" height="26.9388" fill="white" transform="translate(0.897949 0.163086)"/>
</clipPath>
</defs>
</svg>
