<svg width="30" height="31" viewBox="0 0 30 31" fill="none" xmlns="http://www.w3.org/2000/svg">
<mask id="mask0_316_732" style="mask-type:alpha" maskUnits="userSpaceOnUse" x="0" y="0" width="30" height="31">
<rect y="0.5" width="30" height="30" fill="#D9D9D9"/>
</mask>
<g mask="url(#mask0_316_732)">
<path d="M26.2813 14.3125V24.25C26.2813 24.9375 26.0365 25.526 25.547 26.0156C25.0574 26.5052 24.4688 26.75 23.7813 26.75H6.28133C5.59383 26.75 5.00529 26.5052 4.5157 26.0156C4.02612 25.526 3.78133 24.9375 3.78133 24.25V14.3125C3.30216 13.875 2.93237 13.3125 2.67195 12.625C2.41154 11.9375 2.40633 11.1875 2.65633 10.375L3.96883 6.125C4.1355 5.58333 4.43237 5.13542 4.85945 4.78125C5.28654 4.42708 5.78133 4.25 6.34383 4.25H23.7188C24.2813 4.25 24.7709 4.42187 25.1876 4.76562C25.6042 5.10938 25.9063 5.5625 26.0938 6.125L27.4063 10.375C27.6563 11.1875 27.6511 11.9271 27.3907 12.5938C27.1303 13.2604 26.7605 13.8333 26.2813 14.3125ZM17.7813 13C18.3438 13 18.7709 12.8073 19.0626 12.4219C19.3542 12.0365 19.4688 11.6042 19.4063 11.125L18.7188 6.75H16.2813V11.375C16.2813 11.8125 16.4272 12.1927 16.7188 12.5156C17.0105 12.8385 17.3647 13 17.7813 13ZM12.1563 13C12.6355 13 13.0261 12.8385 13.3282 12.5156C13.6303 12.1927 13.7813 11.8125 13.7813 11.375V6.75H11.3438L10.6563 11.125C10.573 11.625 10.6824 12.0625 10.9845 12.4375C11.2865 12.8125 11.6772 13 12.1563 13ZM6.59383 13C6.96883 13 7.29695 12.8646 7.5782 12.5938C7.85945 12.3229 8.03133 11.9792 8.09383 11.5625L8.78133 6.75H6.34383L5.09383 10.9375C4.96883 11.3542 5.03654 11.8021 5.29695 12.2812C5.55737 12.7604 5.98966 13 6.59383 13ZM23.4688 13C24.073 13 24.5105 12.7604 24.7813 12.2812C25.0522 11.8021 25.1147 11.3542 24.9688 10.9375L23.6563 6.75H21.2813L21.9688 11.5625C22.0313 11.9792 22.2032 12.3229 22.4845 12.5938C22.7657 12.8646 23.0938 13 23.4688 13ZM6.28133 24.25H23.7813V15.4375C23.6772 15.4792 23.6095 15.5 23.5782 15.5H23.4688C22.9063 15.5 22.4115 15.4063 21.9845 15.2188C21.5574 15.0313 21.1355 14.7292 20.7188 14.3125C20.3438 14.6875 19.9167 14.9792 19.4376 15.1875C18.9584 15.3958 18.448 15.5 17.9063 15.5C17.3438 15.5 16.8178 15.3958 16.3282 15.1875C15.8386 14.9792 15.4063 14.6875 15.0313 14.3125C14.6772 14.6875 14.2657 14.9792 13.797 15.1875C13.3282 15.3958 12.823 15.5 12.2813 15.5C11.6772 15.5 11.1303 15.3958 10.6407 15.1875C10.1511 14.9792 9.71883 14.6875 9.34383 14.3125C8.90633 14.75 8.47404 15.0573 8.04695 15.2344C7.61987 15.4115 7.1355 15.5 6.59383 15.5H6.4532C6.40112 15.5 6.34383 15.4792 6.28133 15.4375V24.25Z" fill="white"/>
</g>
</svg>
