<svg width="30" height="31" viewBox="0 0 30 31" fill="none" xmlns="http://www.w3.org/2000/svg">
<mask id="mask0_316_693" style="mask-type:alpha" maskUnits="userSpaceOnUse" x="0" y="0" width="30" height="31">
<rect y="0.5" width="30" height="30" fill="#D9D9D9"/>
</mask>
<g mask="url(#mask0_316_693)">
<path d="M9.24998 20.5L13.0625 16.6875L15.5625 19.1875L20 14.7812V16.75H22.5V10.5H16.25V13H18.2187L15.5625 15.6562L13.0625 13.1562L7.49998 18.75L9.24998 20.5ZM6.46195 27.3505C5.53892 27.3505 4.75608 27.0292 4.11341 26.3865C3.47075 25.7439 3.14941 24.961 3.14941 24.038V6.96195C3.14941 6.03893 3.47075 5.25608 4.11341 4.61341C4.75608 3.97075 5.53892 3.64941 6.46195 3.64941H23.538C24.461 3.64941 25.2439 3.97075 25.8865 4.61341C26.5292 5.25608 26.8505 6.03893 26.8505 6.96195V24.038C26.8505 24.961 26.5292 25.7439 25.8865 26.3865C25.2439 27.0292 24.461 27.3505 23.538 27.3505H6.46195ZM6.46195 24.038H23.538V6.96195H6.46195V24.038Z" fill="white"/>
</g>
</svg>
