<svg width="current" height="current" viewBox="0 0 72 72" fill="none" xmlns="http://www.w3.org/2000/svg">
<mask id="mask0_26_562" style="mask-type:alpha" maskUnits="userSpaceOnUse" x="0" y="0" width="72" height="72">
<rect width="72" height="72" fill="#D9D9D9"/>
</mask>
<g mask="url(#mask0_26_562)">
<path d="M21 57.978V51.8929H42.3C45.45 51.8929 48.1875 50.8787 50.5125 48.8504C52.8375 46.822 54 44.2866 54 41.2441C54 38.2016 52.8375 35.6661 50.5125 33.6378C48.1875 31.6094 45.45 30.5952 42.3 30.5952H23.4L31.2 38.5058L27 42.7653L12 27.5527L27 12.3401L31.2 16.5996L23.4 24.5102H42.3C47.15 24.5102 51.3125 26.1075 54.7875 29.3022C58.2625 32.4968 60 36.4775 60 41.2441C60 46.0107 58.2625 49.9913 54.7875 53.186C51.3125 56.3806 47.15 57.978 42.3 57.978H21Z" fill="#1C1B1F"/>
</g>
</svg>
