<svg width="24" height="23" viewBox="0 0 24 23" fill="none" xmlns="http://www.w3.org/2000/svg">
<mask id="mask0_2_81" style="mask-type:alpha" maskUnits="userSpaceOnUse" x="0" y="0" width="24" height="23">
<rect width="24" height="22.8629" fill="#D9D9D9"/>
</mask>
<g mask="url(#mask0_2_81)">
<path d="M6.02302 16.4731C6.87302 15.8722 7.79897 15.3977 8.80089 15.0496C9.80281 14.7015 10.8691 14.5275 11.9999 14.5275C13.1307 14.5275 14.197 14.7015 15.1989 15.0496C16.2009 15.3977 17.1268 15.8722 17.9768 16.4731C18.5986 15.8221 19.0913 15.0685 19.4547 14.2124C19.8182 13.3563 19.9999 12.4293 19.9999 11.4315C19.9999 9.31983 19.2208 7.52175 17.6624 6.03725C16.1041 4.55275 14.2166 3.8105 11.9999 3.8105C9.78325 3.8105 7.89575 4.55275 6.33741 6.03725C4.77908 7.52175 3.99991 9.31983 3.99991 11.4315C3.99991 12.4293 4.18165 13.3563 4.54511 14.2124C4.90858 15.0685 5.40121 15.8221 6.02302 16.4731ZM12.0002 12.1459C11.0872 12.1459 10.3172 11.8474 9.69032 11.2504C9.0634 10.6533 8.74994 9.91995 8.74994 9.0502C8.74994 8.18044 9.0633 7.44696 9.69002 6.84974C10.3167 6.25253 11.0866 5.95392 11.9996 5.95392C12.9126 5.95392 13.6826 6.25243 14.3095 6.84946C14.9364 7.4465 15.2499 8.17989 15.2499 9.04963C15.2499 9.91939 14.9365 10.6529 14.3098 11.2501C13.6831 11.8473 12.9132 12.1459 12.0002 12.1459ZM11.9999 20.4813C10.6807 20.4813 9.44319 20.245 8.28744 19.7724C7.13167 19.2997 6.12622 18.6561 5.27109 17.8415C4.41597 17.0269 3.74034 16.0691 3.24419 14.9681C2.74802 13.8671 2.49994 12.6882 2.49994 11.4315C2.49994 10.1747 2.74802 8.99588 3.24419 7.89489C3.74034 6.79388 4.41597 5.83607 5.27109 5.02145C6.12622 4.20685 7.13167 3.56322 8.28744 3.09058C9.44319 2.61792 10.6807 2.38159 11.9999 2.38159C13.3192 2.38159 14.5566 2.61792 15.7124 3.09058C16.8682 3.56322 17.8736 4.20685 18.7287 5.02145C19.5839 5.83607 20.2595 6.79388 20.7556 7.89489C21.2518 8.99588 21.4999 10.1747 21.4999 11.4315C21.4999 12.6882 21.2518 13.8671 20.7556 14.9681C20.2595 16.0691 19.5839 17.0269 18.7287 17.8415C17.8736 18.6561 16.8682 19.2997 15.7124 19.7724C14.5566 20.245 13.3192 20.4813 11.9999 20.4813ZM11.9999 19.0524C12.9025 19.0524 13.7727 18.9141 14.6105 18.6375C15.4483 18.3609 16.1922 17.974 16.8422 17.4769C16.1922 16.9982 15.4579 16.6251 14.6393 16.3576C13.8208 16.0901 12.941 15.9564 11.9999 15.9564C11.0589 15.9564 10.1775 16.0886 9.35567 16.353C8.53387 16.6174 7.80117 16.9921 7.15759 17.4769C7.80759 17.974 8.55151 18.3609 9.38934 18.6375C10.2272 18.9141 11.0973 19.0524 11.9999 19.0524ZM11.9999 10.717C12.4973 10.717 12.9134 10.5576 13.248 10.2389C13.5826 9.92011 13.7499 9.52378 13.7499 9.04992C13.7499 8.57605 13.5826 8.17973 13.248 7.86095C12.9134 7.54219 12.4973 7.38281 11.9999 7.38281C11.5025 7.38281 11.0864 7.54219 10.7518 7.86095C10.4172 8.17973 10.2499 8.57605 10.2499 9.04992C10.2499 9.52378 10.4172 9.92011 10.7518 10.2389C11.0864 10.5576 11.5025 10.717 11.9999 10.717Z" fill="#0064FF"/>
</g>
</svg>
