<svg width="175" height="49" viewBox="0 0 175 49" fill="none" xmlns="http://www.w3.org/2000/svg">
<g clip-path="url(#clip0_2_95)">
<path fill-rule="evenodd" clip-rule="evenodd" d="M11.7792 9.77209C13.9208 9.29615 16.5189 9.13257 19.6119 9.13257C22.705 9.13257 25.303 9.29615 27.4446 9.77209C29.6049 10.2522 31.4004 11.0718 32.7816 12.453C34.1628 13.8342 34.9824 15.6297 35.4626 17.79C35.9385 19.9316 36.1021 22.5297 36.1021 25.6227C36.1021 28.7158 35.9385 31.3138 35.4626 33.4554C34.9824 35.6157 34.1628 37.4112 32.7816 38.7924C31.4004 40.1736 29.6049 40.9932 27.4446 41.4734C25.303 41.9493 22.705 42.1129 19.6119 42.1129C16.5189 42.1129 13.9208 41.9493 11.7792 41.4734C9.61892 40.9932 7.82337 40.1736 6.44219 38.7924C5.06101 37.4112 4.2414 35.6157 3.76129 33.4554C3.28535 31.3138 3.12177 28.7158 3.12177 25.6227C3.12177 22.5297 3.28535 19.9316 3.76129 17.79C4.2414 15.6297 5.06101 13.8342 6.44219 12.453C7.82337 11.0718 9.61892 10.2522 11.7792 9.77209ZM14.6649 24.7982C14.6649 22.5214 16.5106 20.6757 18.7874 20.6757C21.0642 20.6757 22.9099 22.5214 22.9099 24.7982C22.9099 27.075 21.0642 28.9207 18.7874 28.9207C16.5106 28.9207 14.6649 27.075 14.6649 24.7982ZM18.7874 17.3776C14.6891 17.3776 11.3668 20.6999 11.3668 24.7982C11.3668 28.8965 14.6891 32.2188 18.7874 32.2188C20.2394 32.2188 21.594 31.8017 22.738 31.081L25.042 33.3848C25.6859 34.0287 26.7301 34.0287 27.374 33.3848C28.0179 32.7409 28.0179 31.6967 27.374 31.0528L25.0702 28.7488C25.7909 27.6048 26.208 26.2502 26.208 24.7982C26.208 20.6999 22.8857 17.3776 18.7874 17.3776Z" fill="#0064FF"/>
</g>
<path d="M58.9644 36.728V17.96C58.9644 16.832 59.7564 16.208 60.8844 16.208C62.0124 16.208 62.8044 16.832 62.8044 17.96V36.728C62.8044 37.856 62.0124 38.48 60.8844 38.48C59.7564 38.48 58.9644 37.856 58.9644 36.728ZM51.7644 25.352H47.5164V29.216C47.5164 29.552 47.5884 29.648 47.9244 29.648H51.3564C51.6924 29.648 51.7644 29.552 51.7644 29.216V25.352ZM43.9164 30.392V18.872C43.9164 17.792 44.6364 17.216 45.7164 17.216C46.7964 17.216 47.5164 17.792 47.5164 18.872V22.232H51.7644V18.872C51.7644 17.792 52.4844 17.216 53.5644 17.216C54.6444 17.216 55.3644 17.792 55.3644 18.872V30.392C55.3644 31.952 54.5244 32.768 52.9644 32.768H46.3164C44.7564 32.768 43.9164 31.952 43.9164 30.392ZM74.1315 20.552H69.4515C68.4195 20.552 67.7235 19.976 67.7235 18.944C67.7235 17.912 68.4195 17.336 69.4515 17.336H82.6995C83.7315 17.336 84.4275 17.912 84.4275 18.944C84.4275 19.976 83.7315 20.552 82.6995 20.552H77.9955C78.1875 23.048 80.5395 24.632 83.8515 25.976C84.7635 26.336 85.1235 27.296 84.7635 28.16C84.4035 29.024 83.5155 29.288 82.5315 29.024C79.9155 28.304 77.4675 26.576 76.0755 24.8C74.6835 26.576 72.2355 28.304 69.6195 29.024C68.6355 29.288 67.7475 29.024 67.3875 28.16C67.0275 27.296 67.3875 26.336 68.2995 25.976C71.6115 24.632 73.9395 23.048 74.1315 20.552ZM85.0755 35.72H67.0755C65.9955 35.72 65.3475 35.168 65.3475 34.088C65.3475 33.008 65.9955 32.456 67.0755 32.456H85.0755C86.1555 32.456 86.8035 33.008 86.8035 34.088C86.8035 35.168 86.1555 35.72 85.0755 35.72ZM113.378 35.72H95.3777C94.2977 35.72 93.6497 35.168 93.6497 34.088C93.6497 33.008 94.2977 32.456 95.3777 32.456H113.378C114.458 32.456 115.106 33.008 115.106 34.088C115.106 35.168 114.458 35.72 113.378 35.72ZM104.378 16.976C105.506 16.976 106.298 17.624 106.298 18.752V19.736C106.298 22.424 109.058 24.44 112.274 25.88C113.162 26.264 113.594 27.248 113.186 28.136C112.802 28.976 111.842 29.336 110.882 29C108.266 28.088 105.818 26.432 104.378 24.608C102.938 26.432 100.49 28.088 97.8737 29C96.9137 29.336 95.9537 28.976 95.5697 28.136C95.1617 27.248 95.5937 26.264 96.4817 25.88C99.6977 24.44 102.458 22.424 102.458 19.736V18.752C102.458 17.624 103.25 16.976 104.378 16.976ZM131.227 26.768V36.152C131.227 37.232 130.603 37.784 129.523 37.784C128.443 37.784 127.819 37.232 127.819 36.152V18.08C127.819 17 128.443 16.448 129.523 16.448C130.603 16.448 131.227 17 131.227 18.08V23.504H133.099V17.864C133.099 16.784 133.747 16.208 134.827 16.208C135.907 16.208 136.555 16.784 136.555 17.864V36.824C136.555 37.904 135.907 38.48 134.827 38.48C133.747 38.48 133.099 37.904 133.099 36.824V26.768H131.227ZM119.011 26.6H118.099C117.091 26.6 116.443 26.048 116.443 25.04C116.443 24.032 117.091 23.48 118.099 23.48H119.011C120.067 23.48 121.195 23.456 122.491 23.384C122.611 22.856 122.659 22.328 122.659 21.752V21.104C122.659 20.672 122.587 20.552 122.107 20.552H118.531C117.523 20.552 116.923 19.952 116.923 18.944C116.923 17.936 117.523 17.336 118.531 17.336H123.955C125.515 17.336 126.355 18.104 126.355 19.664V20.984C126.355 25.64 123.907 30.536 119.491 33.392C118.675 33.92 117.547 33.728 117.019 32.888C116.515 32.072 116.683 31.136 117.571 30.392C119.083 29.12 120.307 27.872 121.171 26.552C120.451 26.6 119.731 26.6 119.011 26.6ZM154.693 21.944V17.96C154.693 16.832 155.485 16.208 156.613 16.208C157.741 16.208 158.533 16.832 158.533 17.96V36.728C158.533 37.856 157.741 38.48 156.613 38.48C155.485 38.48 154.693 37.856 154.693 36.728V25.136H150.061C149.053 25.136 148.357 24.632 148.357 23.528C148.357 22.424 149.053 21.944 150.061 21.944H154.693ZM151.285 31.736C149.125 32.096 147.037 32.288 144.565 32.288H142.549C140.917 32.288 140.125 31.472 140.125 29.888V19.112C140.125 18.056 140.821 17.264 142.045 17.264C143.269 17.264 143.965 18.056 143.965 19.112V28.568C143.965 28.904 144.037 28.976 144.373 28.976H144.901C146.965 28.976 149.101 28.832 150.805 28.544C151.717 28.4 152.509 28.736 152.677 29.768C152.869 30.824 152.197 31.568 151.285 31.736Z" fill="#0064FF"/>
<defs>
<clipPath id="clip0_2_95">
<rect width="36" height="36" fill="white" transform="translate(0 6)"/>
</clipPath>
</defs>
</svg>
