<svg width="48" height="48" viewBox="0 0 48 48" fill="none" xmlns="http://www.w3.org/2000/svg">
<mask id="mask0_184_852" style="mask-type:alpha" maskUnits="userSpaceOnUse" x="0" y="0" width="48" height="48">
<rect width="48" height="48" fill="#D9D9D9"/>
</mask>
<g mask="url(#mask0_184_852)">
<path d="M14 42C12.9 42 11.9583 41.6083 11.175 40.825C10.3917 40.0417 10 39.1 10 38V12H8V8H18V6H30V8H40V12H38V38C38 39.1 37.6083 40.0417 36.825 40.825C36.0417 41.6083 35.1 42 34 42H14ZM34 12H14V38H34V12ZM18 34H22V16H18V34ZM26 34H30V16H26V34Z" fill="#1C1B1F"/>
</g>
</svg>
